<svg width="295" height="99" viewBox="0 0 295 99" fill="none" xmlns="http://www.w3.org/2000/svg">
<g opacity="0.3">
<path fill-rule="evenodd" clip-rule="evenodd" d="M192.03 40.2157C189.481 40.2157 187.417 38.1436 187.417 35.5843V4.63142C187.417 2.07209 189.481 0 192.03 0C194.579 0 196.643 2.07209 196.643 4.63142V35.5843C196.643 38.1383 194.579 40.2157 192.03 40.2157Z" fill="#F8F8FB"/>
<path fill-rule="evenodd" clip-rule="evenodd" d="M207.442 24.7367H176.613C174.064 24.7367 172 22.6646 172 20.1053C172 17.546 174.064 15.4739 176.613 15.4739H207.442C209.991 15.4739 212.055 17.546 212.055 20.1053C212.061 22.6593 209.991 24.7367 207.442 24.7367Z" fill="#F8F8FB"/>
</g>
<g opacity="0.3">
<path fill-rule="evenodd" clip-rule="evenodd" d="M145.692 75.6909C144.986 76.3971 143.84 76.3949 143.131 75.6857L134.555 67.1096C133.846 66.4005 133.843 65.2546 134.55 64.5483C135.256 63.842 136.402 63.8443 137.111 64.5534L145.687 73.1295C146.395 73.8372 146.399 74.9846 145.692 75.6909Z" fill="#F8F8FB"/>
<path fill-rule="evenodd" clip-rule="evenodd" d="M145.674 67.132L137.132 75.6738C136.426 76.3801 135.28 76.3778 134.571 75.6687C133.861 74.9596 133.859 73.8137 134.565 73.1074L143.107 64.5655C143.814 63.8592 144.96 63.8615 145.669 64.5706C146.378 65.2768 146.38 66.4257 145.674 67.132Z" fill="#F8F8FB"/>
</g>
<g opacity="0.3">
<path fill-rule="evenodd" clip-rule="evenodd" d="M69.0774 47.0767C68.651 47.5031 67.9592 47.5017 67.5311 47.0736L62.3536 41.896C61.9255 41.4679 61.9241 40.7761 62.3505 40.3497C62.7769 39.9233 63.4687 39.9247 63.8968 40.3528L69.0743 45.5303C69.5015 45.9576 69.5038 46.6503 69.0774 47.0767Z" fill="#F8F8FB"/>
<path fill-rule="evenodd" clip-rule="evenodd" d="M69.0662 41.9093L63.9093 47.0661C63.4829 47.4925 62.7911 47.4911 62.363 47.063C61.9349 46.6349 61.9335 45.9431 62.3599 45.5167L67.5167 40.3598C67.9431 39.9334 68.635 39.9348 69.0631 40.3629C69.4912 40.7892 69.4926 41.4829 69.0662 41.9093Z" fill="#F8F8FB"/>
</g>
<g opacity="0.3">
<path fill-rule="evenodd" clip-rule="evenodd" d="M291.077 83.0767C290.651 83.5031 289.959 83.5017 289.531 83.0736L284.354 77.896C283.925 77.4679 283.924 76.7761 284.35 76.3497C284.777 75.9233 285.469 75.9247 285.897 76.3528L291.074 81.5303C291.502 81.9576 291.504 82.6503 291.077 83.0767Z" fill="#F8F8FB"/>
<path fill-rule="evenodd" clip-rule="evenodd" d="M291.066 77.9093L285.909 83.0661C285.483 83.4925 284.791 83.4911 284.363 83.063C283.935 82.6349 283.933 81.9431 284.36 81.5167L289.517 76.3598C289.943 75.9334 290.635 75.9348 291.063 76.3629C291.491 76.7892 291.493 77.4829 291.066 77.9093Z" fill="#F8F8FB"/>
</g>
<g opacity="0.2">
<path fill-rule="evenodd" clip-rule="evenodd" d="M224.839 60.5307C224.605 60.2966 224.605 59.917 224.84 59.682L227.682 56.8405C227.917 56.6055 228.297 56.6047 228.531 56.8388C228.765 57.0728 228.764 57.4525 228.529 57.6874L225.687 60.529C225.453 60.7634 225.073 60.7647 224.839 60.5307Z" fill="#CEDCFF"/>
<path fill-rule="evenodd" clip-rule="evenodd" d="M227.675 60.5245L224.844 57.6942C224.61 57.4602 224.611 57.0805 224.846 56.8456C225.081 56.6106 225.461 56.6099 225.695 56.8439L228.525 59.6741C228.759 59.9081 228.758 60.2878 228.523 60.5228C228.289 60.7577 227.909 60.7585 227.675 60.5245Z" fill="#CEDCFF"/>
</g>
<g opacity="0.2">
<path fill-rule="evenodd" clip-rule="evenodd" d="M205.839 96.5307C205.605 96.2966 205.605 95.917 205.84 95.682L208.682 92.8405C208.917 92.6055 209.297 92.6047 209.531 92.8388C209.765 93.0728 209.764 93.4525 209.529 93.6874L206.687 96.529C206.453 96.7634 206.073 96.7647 205.839 96.5307Z" fill="#CEDCFF"/>
<path fill-rule="evenodd" clip-rule="evenodd" d="M208.675 96.5245L205.844 93.6942C205.61 93.4602 205.611 93.0805 205.846 92.8456C206.081 92.6106 206.461 92.6099 206.695 92.8439L209.525 95.6741C209.759 95.9081 209.758 96.2878 209.523 96.5228C209.289 96.7577 208.909 96.7585 208.675 96.5245Z" fill="#CEDCFF"/>
</g>
<g opacity="0.2">
<path fill-rule="evenodd" clip-rule="evenodd" d="M122.839 26.5307C122.605 26.2966 122.605 25.917 122.84 25.682L125.682 22.8405C125.917 22.6055 126.297 22.6047 126.531 22.8388C126.765 23.0728 126.764 23.4525 126.529 23.6874L123.687 26.529C123.453 26.7634 123.073 26.7647 122.839 26.5307Z" fill="#CEDCFF"/>
<path fill-rule="evenodd" clip-rule="evenodd" d="M125.675 26.5245L122.844 23.6942C122.61 23.4602 122.611 23.0805 122.846 22.8456C123.081 22.6106 123.461 22.6099 123.695 22.8439L126.525 25.6741C126.759 25.9081 126.758 26.2878 126.523 26.5228C126.289 26.7577 125.909 26.7585 125.675 26.5245Z" fill="#CEDCFF"/>
</g>
<g opacity="0.2">
<path fill-rule="evenodd" clip-rule="evenodd" d="M2.6006 53.2211C2.26965 53.2211 2.00171 52.9521 2.00171 52.6198V48.6013C2.00171 48.269 2.26965 48 2.6006 48C2.93155 48 3.19949 48.269 3.19949 48.6013V52.6198C3.19949 52.9514 2.93155 53.2211 2.6006 53.2211Z" fill="#CEDCFF"/>
<path fill-rule="evenodd" clip-rule="evenodd" d="M4.60142 51.2114H0.598891C0.267943 51.2114 0 50.9424 0 50.6101C0 50.2778 0.267943 50.0088 0.598891 50.0088H4.60142C4.93236 50.0088 5.20031 50.2778 5.20031 50.6101C5.201 50.9417 4.93236 51.2114 4.60142 51.2114Z" fill="#CEDCFF"/>
</g>
</svg>
