<svg width="332" height="352" viewBox="0 0 332 352" fill="none" xmlns="http://www.w3.org/2000/svg">
<g opacity="0.5">
<path fill-rule="evenodd" clip-rule="evenodd" d="M254.451 151.401C246.249 151.401 239.608 144.733 239.608 136.498V36.9023C239.608 28.6673 246.249 22 254.451 22C262.653 22 269.294 28.6673 269.294 36.9023V136.498C269.294 144.716 262.653 151.401 254.451 151.401Z" fill="#FCFCFD"/>
<path fill-rule="evenodd" clip-rule="evenodd" d="M304.041 101.595H204.843C196.641 101.595 190 94.9274 190 86.6924C190 78.4573 196.641 71.79 204.843 71.79H304.041C312.244 71.79 318.884 78.4573 318.884 86.6924C318.901 94.9102 312.244 101.595 304.041 101.595Z" fill="#FCFCFD"/>
<path fill-rule="evenodd" clip-rule="evenodd" d="M85.7101 176.705C83.4375 178.978 79.7503 178.97 77.4686 176.689L49.8736 149.094C47.5919 146.812 47.5846 143.125 49.8571 140.852C52.1297 138.58 55.817 138.587 58.0986 140.869L85.6936 168.464C87.9705 170.741 87.9827 174.433 85.7101 176.705Z" fill="#FCFCFD"/>
<path fill-rule="evenodd" clip-rule="evenodd" d="M85.6508 149.165L58.1659 176.65C55.8933 178.923 52.2061 178.916 49.9244 176.634C47.6427 174.352 47.6353 170.665 49.9079 168.392L77.3928 140.907C79.6654 138.635 83.3526 138.642 85.6343 140.924C87.916 143.196 87.9234 146.893 85.6508 149.165Z" fill="#FCFCFD"/>
<path fill-rule="evenodd" clip-rule="evenodd" d="M320.426 340.423C319.054 341.795 316.828 341.791 315.45 340.413L298.791 323.753C297.413 322.376 297.409 320.15 298.781 318.778C300.153 317.406 302.379 317.41 303.756 318.788L320.416 335.447C321.79 336.822 321.798 339.051 320.426 340.423Z" fill="#FCFCFD"/>
<path fill-rule="evenodd" clip-rule="evenodd" d="M320.39 323.796L303.797 340.389C302.425 341.761 300.199 341.757 298.821 340.379C297.444 339.002 297.439 336.776 298.811 335.404L315.404 318.811C316.776 317.439 319.003 317.443 320.38 318.821C321.757 320.193 321.762 322.424 320.39 323.796Z" fill="#FCFCFD"/>
<g opacity="0.4">
<path fill-rule="evenodd" clip-rule="evenodd" d="M8.36746 205.8C7.30258 205.8 6.44043 204.934 6.44043 203.865V190.935C6.44043 189.866 7.30258 189 8.36746 189C9.43233 189 10.2945 189.866 10.2945 190.935V203.865C10.2945 204.932 9.43233 205.8 8.36746 205.8Z" fill="#F8F8FB"/>
<path fill-rule="evenodd" clip-rule="evenodd" d="M14.8058 199.333H1.92703C0.86215 199.333 0 198.468 0 197.399C0 196.329 0.86215 195.464 1.92703 195.464H14.8058C15.8707 195.464 16.7328 196.329 16.7328 197.399C16.7351 198.466 15.8707 199.333 14.8058 199.333Z" fill="#F8F8FB"/>
<path fill-rule="evenodd" clip-rule="evenodd" d="M188.917 17.7956C188.164 17.0426 188.166 15.8209 188.922 15.0649L198.066 5.92178C198.822 5.16578 200.043 5.16334 200.796 5.91632C201.549 6.66931 201.547 7.89101 200.791 8.64701L191.648 17.7902C190.893 18.5446 189.67 18.5486 188.917 17.7956Z" fill="#F8F8FB"/>
<path fill-rule="evenodd" clip-rule="evenodd" d="M198.042 17.7767L188.935 8.67005C188.182 7.91707 188.185 6.69536 188.941 5.93936C189.697 5.18336 190.918 5.18092 191.671 5.9339L200.778 15.0406C201.531 15.7936 201.528 17.0153 200.772 17.7713C200.02 18.5273 198.795 18.5297 198.042 17.7767Z" fill="#F8F8FB"/>
<path fill-rule="evenodd" clip-rule="evenodd" d="M288.367 261.8C287.303 261.8 286.44 260.934 286.44 259.865V246.935C286.44 245.866 287.303 245 288.367 245C289.432 245 290.294 245.866 290.294 246.935V259.865C290.294 260.932 289.432 261.8 288.367 261.8Z" fill="#F8F8FB"/>
<path fill-rule="evenodd" clip-rule="evenodd" d="M294.806 255.333H281.927C280.862 255.333 280 254.468 280 253.399C280 252.329 280.862 251.464 281.927 251.464H294.806C295.871 251.464 296.733 252.329 296.733 253.399C296.735 254.466 295.871 255.333 294.806 255.333Z" fill="#F8F8FB"/>
</g>
</g>
</svg>
