<svg width="238" height="228" viewBox="0 0 238 228" fill="none" xmlns="http://www.w3.org/2000/svg">
<path fill-rule="evenodd" clip-rule="evenodd" d="M164.765 225.461C117.533 127.734 136.62 6.75848 219.921 -71.4343C322.625 -167.846 484.039 -162.738 580.45 -60.0345C655.247 19.659 668.937 134.684 623.338 227.278C641.846 214.878 659.617 200.845 676.388 185.101C731.702 133.183 769.377 69.5497 789.28 1.67725C771.904 -59.2447 740.153 -117.06 693.79 -166.45C538.616 -331.761 278.816 -339.949 113.531 -184.774C58.2434 -132.857 20.5423 -69.2228 0.638672 -1.3504C18.0149 59.5715 49.7659 117.387 96.1024 166.777C117.217 189.235 140.28 208.796 164.765 225.461Z" fill="url(#paint0_linear_234_13551)"/>
<defs>
<linearGradient id="paint0_linear_234_13551" x1="394.96" y1="-296" x2="394.96" y2="227.278" gradientUnits="userSpaceOnUse">
<stop stop-color="#CEE4FF"/>
<stop offset="1" stop-color="#CEDCFF" stop-opacity="0"/>
</linearGradient>
</defs>
</svg>
