<svg width="83" height="83" viewBox="0 0 83 83" fill="none" xmlns="http://www.w3.org/2000/svg">
<path d="M41.4999 13.4947C56.066 13.4947 57.5281 22.9861 57.5281 31.8379C57.5281 37.473 55.5482 47.7991 53.2941 51.0522C50.4674 54.4942 46.4284 60.9274 41.506 60.9274C36.5775 60.9274 32.5385 54.4881 29.7179 51.0522C27.4638 47.7991 25.4839 37.4669 25.4839 31.8379C25.4778 22.9861 26.9338 13.4947 41.4999 13.4947Z" stroke="white" stroke-width="2" stroke-miterlimit="10"/>
<path d="M30.8815 52.5386V66.0447C30.8815 68.5059 17.741 75.1584 17.741 75.1584" stroke="white" stroke-width="2" stroke-miterlimit="10" stroke-linecap="round"/>
<path d="M52.1245 52.5386V66.0447C52.1245 68.5059 65.2651 75.1584 65.2651 75.1584" stroke="white" stroke-width="2" stroke-miterlimit="10" stroke-linecap="round"/>
<path d="M15.8524 34.1226C6.78745 35.8527 1 38.4906 1 41.4391C1 45.9229 14.3599 49.6756 32.2949 50.6503" stroke="white" stroke-width="2" stroke-miterlimit="10" stroke-linecap="round"/>
<path d="M36.9614 50.8333C38.454 50.8698 39.9648 50.8942 41.5 50.8942C63.87 50.8942 82 46.6602 82 41.4393C82 38.5151 76.3161 35.9016 67.3852 34.1654" stroke="white" stroke-width="2" stroke-miterlimit="10" stroke-linecap="round"/>
<path d="M47.6104 72.3928C45.9716 78.3143 43.8516 81.8842 41.5366 81.8842C36.3218 81.8842 32.1 63.7786 32.1 41.4452C32.0939 19.1056 36.3218 1 41.5305 1C43.1814 1 44.7349 2.81543 46.0873 6.01376" stroke="white" stroke-width="2" stroke-miterlimit="10" stroke-linecap="round"/>
<path d="M67.3851 34.165L70.7601 32.179" stroke="white" stroke-width="2" stroke-miterlimit="10" stroke-linecap="round"/>
<path d="M67.3851 34.1651L69.5783 37.1868" stroke="white" stroke-width="2" stroke-miterlimit="10" stroke-linecap="round"/>
</svg>
