<svg width="86" height="74" viewBox="0 0 86 74" fill="none" xmlns="http://www.w3.org/2000/svg">
<path d="M54.533 41.1859L54.8027 42.7781C55.0514 43.7673 54.2896 44.7248 53.2687 44.6984L51.5072 44.6243C49.0104 50.2791 52.2319 57.6425 42.4087 57.2299C39.9172 57.1241 38.0499 56.9125 36.6164 56.2989C35.733 55.9551 34.6274 55.278 33.4478 54.347" stroke="white" stroke-width="2" stroke-miterlimit="10" stroke-linecap="round" stroke-linejoin="round"/>
<path d="M54.9826 24.2125C55.0302 25.9211 55.0514 27.598 54.9615 28.5555C54.9615 29.4759 52.6763 31.1422 53.036 32.3747L53.5332 35.2894" stroke="white" stroke-width="2" stroke-miterlimit="10" stroke-linecap="round" stroke-linejoin="round"/>
<path d="M1 72.9997C5.01497 67.7681 11.4685 62.4571 12.8069 54.3319L14.4044 44.6304C13.4152 39.3089 6.75532 37.3939 7.60169 20.5565C8.10952 10.4529 16.8747 1 33.5588 1C44.5193 1 53.5438 8.40575 54.7181 17.573" stroke="white" stroke-width="2" stroke-miterlimit="10" stroke-linecap="round" stroke-linejoin="round"/>
<path d="M36.6109 56.305C33.4423 67.7046 36.6902 70.0532 40.8639 72.9997" stroke="white" stroke-width="2" stroke-miterlimit="10" stroke-linecap="round" stroke-linejoin="round"/>
<path d="M44.6092 12.473L44.4399 12.3672" stroke="white" stroke-width="2" stroke-miterlimit="10" stroke-linecap="round" stroke-linejoin="round"/>
<path d="M48.111 14.6163L47.8994 14.4841" stroke="white" stroke-width="2" stroke-miterlimit="10" stroke-linecap="round" stroke-linejoin="round"/>
<path d="M74.3434 30.6864L50.4916 16.0759" stroke="white" stroke-width="2" stroke-miterlimit="10" stroke-linecap="round" stroke-linejoin="round"/>
<path d="M43.7681 38.9969L43.5618 39.0551" stroke="white" stroke-width="2" stroke-miterlimit="10" stroke-linecap="round" stroke-linejoin="round"/>
<path d="M47.6563 37.9384L47.4976 37.986" stroke="white" stroke-width="2" stroke-miterlimit="10" stroke-linecap="round" stroke-linejoin="round"/>
<path d="M74.3435 30.6859L50.243 37.24" stroke="white" stroke-width="2" stroke-miterlimit="10" stroke-linecap="round" stroke-linejoin="round"/>
<path d="M53.9245 52.8775L53.7076 53.1103" stroke="white" stroke-width="2" stroke-miterlimit="10" stroke-linecap="round" stroke-linejoin="round"/>
<path d="M74.3433 30.6859L56.2574 50.3429" stroke="white" stroke-width="2" stroke-miterlimit="10" stroke-linecap="round" stroke-linejoin="round"/>
<path d="M74.3435 30.6858L49.2592 6.18341" stroke="white" stroke-width="2" stroke-miterlimit="10" stroke-linecap="round" stroke-linejoin="round"/>
<path d="M74.3433 30.6859L53.7606 44.7939" stroke="white" stroke-width="2" stroke-miterlimit="10" stroke-linecap="round" stroke-linejoin="round"/>
<path d="M84.2034 27.1469H78.7231V55.2252H84.2034V27.1469Z" stroke="white" stroke-width="2" stroke-miterlimit="10" stroke-linecap="round" stroke-linejoin="round"/>
</svg>
