<svg width="95" height="82" viewBox="0 0 95 82" fill="none" xmlns="http://www.w3.org/2000/svg">
<path d="M54.1597 28.0118H59.2389V33.091" stroke="white" stroke-width="2" stroke-miterlimit="10"/>
<path d="M27.6524 69.2093H22.5786V64.1355" stroke="white" stroke-width="2" stroke-miterlimit="10"/>
<path d="M59.2389 64.1355V69.2093H54.1597" stroke="white" stroke-width="2" stroke-miterlimit="10"/>
<path d="M23.6523 33.3919V28.3181H28.7262" stroke="white" stroke-width="2" stroke-miterlimit="10"/>
<path d="M26.7396 56.8873C28.1195 60.447 30.0738 63.3463 33.2899 64.5973C34.6913 65.204 36.5329 65.5155 38.9812 65.5155C45.7302 65.5155 51.196 46.1436 51.196 31.8886C51.1906 21.9557 41.8376 13.8859 30.2832 13.8859C13.8859 13.8859 7.88322 21.9772 7.19597 31.8886C6.36913 43.749 14.2617 51.545 13.8483 53.2148L12.2805 64.6564C10.9705 72.6296 4.94094 75.8671 1 81" stroke="white" stroke-width="2" stroke-miterlimit="10" stroke-linecap="round" stroke-linejoin="round"/>
<path d="M33.3812 65.5157C30.1812 72.5976 32.3127 77.36 37.4617 81.0002" stroke="white" stroke-width="2" stroke-miterlimit="10" stroke-linecap="round" stroke-linejoin="round"/>
<path d="M57.5102 49.9556L57.3599 50.1972" stroke="white" stroke-width="2" stroke-miterlimit="10" stroke-linecap="round" stroke-linejoin="round"/>
<path d="M85.0271 7.24426L58.9546 47.7114" stroke="white" stroke-width="2" stroke-miterlimit="10" stroke-linecap="round" stroke-linejoin="round"/>
<path d="M48.4741 13.059L85.0271 7.24426" stroke="white" stroke-width="2" stroke-miterlimit="10" stroke-linecap="round" stroke-linejoin="round"/>
<path d="M45.478 13.5368L45.7572 13.4885" stroke="white" stroke-width="2" stroke-miterlimit="10" stroke-linecap="round" stroke-linejoin="round"/>
<path d="M85.0269 7.24426L57.2632 18.7181" stroke="white" stroke-width="2" stroke-miterlimit="10" stroke-linecap="round" stroke-linejoin="round"/>
<path d="M90.9171 6.90604C92.548 6.90604 93.8702 5.58393 93.8702 3.95302C93.8702 2.32211 92.548 1 90.9171 1C89.2862 1 87.9641 2.32211 87.9641 3.95302C87.9641 5.58393 89.2862 6.90604 90.9171 6.90604Z" stroke="white" stroke-width="2" stroke-miterlimit="10" stroke-linecap="round" stroke-linejoin="round"/>
</svg>
