<svg width="20" height="20" viewBox="0 0 20 20" fill="none" xmlns="http://www.w3.org/2000/svg">
<path fill-rule="evenodd" clip-rule="evenodd" d="M19.46 10.1539C19.46 9.44986 19.3968 8.77292 19.2795 8.12305H9.92859V11.9636H15.272C15.0418 13.2047 14.3423 14.2562 13.2908 14.9602V17.4514H16.4995C18.3769 15.7229 19.46 13.1776 19.46 10.1539Z" fill="#4285F4"/>
<path fill-rule="evenodd" clip-rule="evenodd" d="M9.92856 19.8566C12.6093 19.8566 14.8567 18.9675 16.4995 17.4512L13.2907 14.96C12.4017 15.5557 11.2644 15.9077 9.92856 15.9077C7.34262 15.9077 5.15382 14.1612 4.37308 11.8145H1.05603V14.3869C2.68973 17.6317 6.04739 19.8566 9.92856 19.8566Z" fill="#34A853"/>
<path fill-rule="evenodd" clip-rule="evenodd" d="M4.37308 11.815C4.17451 11.2193 4.06169 10.5829 4.06169 9.92856C4.06169 9.27417 4.17451 8.63784 4.37308 8.04213V5.46973H1.05604C0.383604 6.81008 0 8.32645 0 9.92856C0 11.5307 0.383604 13.047 1.05604 14.3874L4.37308 11.815Z" fill="#FBBC05"/>
<path fill-rule="evenodd" clip-rule="evenodd" d="M9.92856 3.94886C11.3863 3.94886 12.695 4.4498 13.724 5.43364L16.5717 2.58594C14.8522 0.983831 12.6048 0 9.92856 0C6.04739 0 2.68973 2.2249 1.05603 5.46974L4.37308 8.04214C5.15382 5.69539 7.34262 3.94886 9.92856 3.94886Z" fill="#EA4335"/>
</svg>
