<svg width="12" height="20" viewBox="0 0 12 20" fill="none" xmlns="http://www.w3.org/2000/svg">
<path d="M2.6759 1H9.3241C10.2181 1 10.9137 1.7771 10.8149 2.66565L9.48159 14.6656C9.39719 15.4253 8.75509 16 7.99077 16H4.00923C3.24491 16 2.60281 15.4253 2.51841 14.6656L1.18507 2.66565C1.08634 1.7771 1.78188 1 2.6759 1Z" stroke="#C5CEE4" stroke-width="2" stroke-linejoin="round"/>
<path d="M4 19V16H8V19H4Z" stroke="#C5CEE4" stroke-width="2" stroke-linejoin="round"/>
<path d="M11 5.02291C10.5316 4.97032 10.0571 5.00848 9.60377 5.1352C9.15042 5.26193 8.72702 5.47474 8.35776 5.76149C7.9885 6.04825 7.68061 6.40332 7.45167 6.80644C7.22272 7.20957 7.07721 7.65284 7.02343 8.11097C6.96965 8.56909 7.00867 9.03308 7.13825 9.47646C7.26782 9.91984 7.48543 10.3339 7.77863 10.695C8.07184 11.0562 8.43491 11.3573 8.84711 11.5812C9.2593 11.8051 9.71256 11.9474 10.181 12" stroke="#C5CEE4" stroke-width="2"/>
</svg>
