<svg width="326" height="304" viewBox="0 0 326 304" fill="none" xmlns="http://www.w3.org/2000/svg">
<ellipse cx="161" cy="152" rx="114" ry="150" stroke="white" stroke-width="3" stroke-linecap="round" stroke-dasharray="20 20"/>
<path d="M127 221C54.7898 216.813 1 200.692 1 181.431C1 172.685 12.1088 164.575 31 157.946" stroke="white" stroke-width="2" stroke-miterlimit="10" stroke-linecap="round"/>
<path d="M145 221.738C150.965 221.895 157.003 222 163.139 222C252.542 222 325 203.777 325 181.307C325 172.505 313.89 164.357 295 157.697" stroke="white" stroke-width="2" stroke-miterlimit="10" stroke-linecap="round"/>
<path d="M146 302C118.369 302 96 234.846 96 152.011C95.9678 69.1537 118.369 2 145.968 2" stroke="white" stroke-width="2" stroke-miterlimit="10" stroke-linecap="round"/>
<path d="M32.4888 157.459L19 149" stroke="white" stroke-width="2" stroke-miterlimit="10" stroke-linecap="round"/>
<path d="M32.4888 157.458L23.7235 170.328" stroke="white" stroke-width="2" stroke-miterlimit="10" stroke-linecap="round"/>
</svg>
