<svg width="105" height="80" viewBox="0 0 105 80" fill="none" xmlns="http://www.w3.org/2000/svg">
<path d="M100.335 41.6653L101.66 40.3395V40.3395L100.335 41.6653ZM83.125 63.2943V65.1693C83.6223 65.1693 84.0992 64.9718 84.4508 64.6202L83.125 63.2943ZM78.75 63.2943H76.875C76.875 64.3299 77.7145 65.1693 78.75 65.1693V63.2943ZM78.75 58.8305L77.4242 57.5047C77.0725 57.8563 76.875 58.3332 76.875 58.8305H78.75ZM97.241 42.9911C97.7292 42.503 98.5207 42.503 99.0088 42.9911L101.66 40.3395C99.7078 38.3868 96.542 38.3868 94.5894 40.3395L97.241 42.9911ZM99.0088 42.9911C99.497 43.4793 99.497 44.2707 99.0088 44.7589L101.66 47.4105C103.613 45.4579 103.613 42.2921 101.66 40.3395L99.0088 42.9911ZM99.0088 44.7589L81.7992 61.9685L84.4508 64.6202L101.66 47.4105L99.0088 44.7589ZM83.125 61.4193H78.75V65.1693H83.125V61.4193ZM94.5894 40.3395L77.4242 57.5047L80.0758 60.1563L97.241 42.9911L94.5894 40.3395ZM76.875 58.8305V63.2943H80.625V58.8305H76.875ZM92.7144 44.8661L97.1338 49.2855L99.7855 46.6339L95.366 42.2145L92.7144 44.8661Z" fill="#CEDCFF"/>
<path d="M37 38C35.8954 38 35 38.8954 35 40C35 41.1046 35.8954 42 37 42V38ZM51 42C52.1046 42 53 41.1046 53 40C53 38.8954 52.1046 38 51 38V42ZM37 51.3333C35.8954 51.3333 35 52.2288 35 53.3333C35 54.4379 35.8954 55.3333 37 55.3333V51.3333ZM51 55.3333C52.1046 55.3333 53 54.4379 53 53.3333C53 52.2288 52.1046 51.3333 51 51.3333V55.3333ZM29.3333 38C28.2288 38 27.3333 38.8954 27.3333 40C27.3333 41.1046 28.2288 42 29.3333 42V38ZM30.3667 42C31.4712 42 32.3667 41.1046 32.3667 40C32.3667 38.8954 31.4712 38 30.3667 38V42ZM29.3333 51.3333C28.2288 51.3333 27.3333 52.2288 27.3333 53.3333C27.3333 54.4379 28.2288 55.3333 29.3333 55.3333V51.3333ZM30.3667 55.3333C31.4712 55.3333 32.3667 54.4379 32.3667 53.3333C32.3667 52.2288 31.4712 51.3333 30.3667 51.3333V55.3333ZM61.6667 23.3333V63.3333H65.6667V23.3333H61.6667ZM57 68H23.6667V72H57V68ZM19 63.3333V23.3333H15V63.3333H19ZM23.6667 18.6667H28V14.6667H23.6667V18.6667ZM53 18.6667H57V14.6667H53V18.6667ZM23.6667 68C21.0893 68 19 65.9107 19 63.3333H15C15 68.1198 18.8802 72 23.6667 72V68ZM61.6667 63.3333C61.6667 65.9107 59.5773 68 57 68V72C61.7865 72 65.6667 68.1198 65.6667 63.3333H61.6667ZM65.6667 23.3333C65.6667 18.5469 61.7865 14.6667 57 14.6667V18.6667C59.5773 18.6667 61.6667 20.756 61.6667 23.3333H65.6667ZM19 23.3333C19 20.756 21.0893 18.6667 23.6667 18.6667V14.6667C18.8802 14.6667 15 18.5469 15 23.3333H19ZM37 42H51V38H37V42ZM37 55.3333H51V51.3333H37V55.3333ZM34.5 12H47V8H34.5V12ZM47 21.3333H34.5V25.3333H47V21.3333ZM34.5 21.3333C31.9883 21.3333 30 19.3108 30 16.6667H26C26 21.3863 29.6479 25.3333 34.5 25.3333V21.3333ZM51 16.6667C51 19.5334 49.3086 21.3333 47 21.3333V25.3333C52.0552 25.3333 55 21.1637 55 16.6667H51ZM47 12C49.3086 12 51 13.7999 51 16.6667H55C55 12.1696 52.0552 8 47 8V12ZM34.5 8C29.6479 8 26 11.947 26 16.6667H30C30 14.0225 31.9883 12 34.5 12V8ZM29.3333 42H30.3667V38H29.3333V42ZM29.3333 55.3333H30.3667V51.3333H29.3333V55.3333Z" fill="#CEDCFF"/>
</svg>
