<svg width="94" height="94" viewBox="0 0 94 94" fill="none" xmlns="http://www.w3.org/2000/svg">
<g clip-path="url(#clip0_4939_48973)">
<path d="M0 8C0 5.19974 0 3.79961 0.544967 2.73005C1.02433 1.78924 1.78924 1.02433 2.73005 0.544967C3.79961 0 5.19974 0 8 0H86C88.8003 0 90.2004 0 91.27 0.544967C92.2108 1.02433 92.9757 1.78924 93.455 2.73005C94 3.79961 94 5.19974 94 8V86C94 88.8003 94 90.2004 93.455 91.27C92.9757 92.2108 92.2108 92.9757 91.27 93.455C90.2004 94 88.8003 94 86 94H8C5.19974 94 3.79961 94 2.73005 93.455C1.78924 92.9757 1.02433 92.2108 0.544967 91.27C0 90.2004 0 88.8003 0 86V8Z" fill="#CEDCFF"/>
<path fill-rule="evenodd" clip-rule="evenodd" d="M-1.7104 172.894C-11.6632 152.299 -7.641 126.804 9.91225 110.325C31.5542 90.0075 65.5678 91.0839 85.8839 112.728C101.645 129.523 104.53 153.763 94.9212 173.277C98.8214 170.663 102.566 167.706 106.1 164.388C117.756 153.447 125.695 140.037 129.889 125.733C126.227 112.894 119.537 100.71 109.767 90.3015C77.0684 55.4636 22.3227 53.7381 -12.5064 86.4399C-24.1568 97.3812 -32.1013 110.792 -36.2954 125.095C-32.6339 137.934 -25.9432 150.118 -16.1791 160.527C-11.7297 165.259 -6.86986 169.382 -1.7104 172.894Z" fill="#F8F8FB"/>
</g>
<defs>
<clipPath id="clip0_4939_48973">
<path d="M0 8C0 5.19974 0 3.79961 0.544967 2.73005C1.02433 1.78924 1.78924 1.02433 2.73005 0.544967C3.79961 0 5.19974 0 8 0H86C88.8003 0 90.2004 0 91.27 0.544967C92.2108 1.02433 92.9757 1.78924 93.455 2.73005C94 3.79961 94 5.19974 94 8V86C94 88.8003 94 90.2004 93.455 91.27C92.9757 92.2108 92.2108 92.9757 91.27 93.455C90.2004 94 88.8003 94 86 94H8C5.19974 94 3.79961 94 2.73005 93.455C1.78924 92.9757 1.02433 92.2108 0.544967 91.27C0 90.2004 0 88.8003 0 86V8Z" fill="white"/>
</clipPath>
</defs>
</svg>
