<svg width="326" height="304" viewBox="0 0 326 304" fill="none" xmlns="http://www.w3.org/2000/svg">
<ellipse cx="161" cy="152" rx="114" ry="150" stroke="white" stroke-width="3" stroke-linecap="round" stroke-dasharray="20 20"/>
<path d="M199 221C271.21 216.813 325 200.692 325 181.431C325 172.685 313.891 164.575 295 157.946" stroke="white" stroke-width="2" stroke-miterlimit="10" stroke-linecap="round"/>
<path d="M181 221.738C175.035 221.895 168.997 222 162.861 222C73.4577 222 1 203.777 1 181.307C1 172.505 12.1104 164.357 31 157.697" stroke="white" stroke-width="2" stroke-miterlimit="10" stroke-linecap="round"/>
<path d="M180 302C207.631 302 230 234.846 230 152.011C230.032 69.1537 207.631 2 180.032 2" stroke="white" stroke-width="2" stroke-miterlimit="10" stroke-linecap="round"/>
<path d="M293.511 157.459L307 149" stroke="white" stroke-width="2" stroke-miterlimit="10" stroke-linecap="round"/>
<path d="M293.511 157.458L302.276 170.328" stroke="white" stroke-width="2" stroke-miterlimit="10" stroke-linecap="round"/>
</svg>
