<svg width="58" height="63" viewBox="0 0 58 63" fill="none" xmlns="http://www.w3.org/2000/svg">
<path d="M14.4167 42.9163C7.97335 42.9163 2.75 37.693 2.75 31.2497C2.75 25.6874 6.64248 21.0344 11.8521 19.8658C11.6216 18.8362 11.5 17.7655 11.5 16.6663C11.5 8.61219 18.0292 2.08301 26.0833 2.08301C33.1396 2.08301 39.0254 7.09457 40.3755 13.7525C40.4723 13.7506 40.5694 13.7497 40.6667 13.7497C48.7208 13.7497 55.25 20.2789 55.25 28.333C55.25 35.3883 50.2399 41.2734 43.5833 42.6246M37.75 34.1663L29 25.4163M29 25.4163L20.25 34.1663M29 25.4163L29 60.4163" stroke="#CEDCFF" stroke-width="4" stroke-linecap="round" stroke-linejoin="round"/>
</svg>
